/* XPM */
static char *result[] = {
/* columns rows colors chars-per-pixel */
"32 32 23 1 ",
"  c #102955",
". c #960540",
"X c #B40540",
"o c #D50540",
"O c #FA0540",
"+ c #FF3968",
"@ c #F2D679",
"# c #2F58A0",
"$ c #4882CE",
"% c #7ABDED",
"& c #F9E8B6",
"* c #FAE9B7",
"= c #FAEBB8",
"- c #96DFE2",
"; c #86D1F9",
": c #94E1E4",
"> c #B9F2E8",
", c #FCE9D9",
"< c #DCF2E8",
"1 c #FCF5E2",
"2 c #FCF6E3",
"3 c #FCFFFE",
"4 c None",
/* pixels */
"44444444444444444+4444444444=@@4",
"4444444444444444Oo444444444=24=4",
"444=44444444+OOOo444444444=244=4",
"444=4444444+Ooo444444444442442=4",
"44=22444444OO4@2=444444444242=@4",
"44424444444OO+, 224444444224=@44",
"44424444444OOOO+ 224444422=44444",
"44444444444@2OOO+OO++4442=444444",
"444444OooX@2 #%OOOOOOO+444444444",
"4444OOooX@2 #%%3>:; 2OOO+4444444",
"444+OoXX@= #$%>;3>:; 2=OO+444444",
"44+OOo44= $$%>>;3>>:< 14OO444444",
"44+OO444* #>>3>;;33<+++OOo444444",
"44OOOO44= #>>3>;;>+++OOOoo444444",
"444OOO44= $%>3>+++OOOOOoo4444444",
"444OOOO4= $%>++OOOOoo 2...X44444",
"4444OOOOOO+++OOOOoo:; 2.XXXX4444",
"444444OOOOOOOOOooo<<; 244XXX4444",
"4444444oooooooo;>;;;< 2444oXX444",
"44444444&2 $$%-3;%%$ 22444ooX444",
"444444444=2 #$%:;%$ 2=4444Ooo444",
"4444444444=2 #%:%$ 2=44444OOo444",
"44444444444== #%# 2=444444OO4444",
"444424444444=2 # 2=444444+OO4444",
"4444=24444444=2 22444444+OO44444",
"4444==24444444===44444++O4444444",
"4444=424444444444444444444424444",
"4444=4424444444444444444444=4444",
"44@==4424444444444444444444=4444",
"4@@==444444444444444444442=2@@44",
"4@@@44444444444444444444444@4444",
"444444444444444444444444444@4444"
};
