/* XPM */
static char *result[] = {
/* columns rows colors chars-per-pixel */
"32 32 17 1 ",
"  c #58314C",
". c #59344D",
"X c #5B374F",
"o c #A64767",
"O c #A8516D",
"+ c #779362",
"@ c #A35C88",
"# c #D87496",
"$ c #9EB191",
"% c #BD9FB9",
"& c #C3B0CC",
"* c #F4BBC4",
"= c #D4C0CC",
"- c #F3F0C0",
"; c #F5F4E3",
": c #E3F5F5",
"> c None",
/* pixels */
">>>>>$>>>>>>>>>>>>>>>>>>>>>>>>>>",
">++>$$***o&&&&o**&&&@@@@@@  >>>>",
">o++$**o&&=::::o***==&@::-:% >>>",
">>oo**o:&=::-:::oo**:&@::-::% >>",
">&:**o::&::-;-::::o**&@;;;--:% >",
">&**o:::&:::-::::::o***::;:::% >",
">**o::::&&&:::::::::oo***;:::% >",
"**o:-::&&&&&&&&&&&&&&&oo**::&**>",
"*o::;::&&  .           :o**:**o>",
"o*--;;-:&  ;;;;;;;;;;  ::o**oo >",
">**:-:::& ;;;;;;;;;;;; :::o**% >",
">o**-:::& ;;;;;;;;;;;;.::**o** >",
">@o**:::& ;;;;;;;;;;;; :**o:o**>",
">@:o**::& ;;;;;;;;;;;; **o::&o*>",
">@::O**:& ;;;;;;;;;;;; *o:::&%o>",
">@:::O**& ;;;;;;;;;;;; o::-:&% >",
">@::::o** ;;;;;;;;;;;; ::-;-&% >",
"> :::::o* ;;;;;;;;;;;; :$:-:&% >",
"> :::::&o ;;;;;;;;;;;; :+$::$% >",
"> ::OO:&& ;;;;;;;;;;;; :+$$$+% >",
"> :O**O&& ;;;;;;;;;;;; ::$$+&% >",
"> $O*# && ;;;;;;;;;;;;**:++:&% >",
"> :+O $$&X;;;;;;;;;;;; **+::&% >",
"> ::++:&& ;;;;;;;;;;;; o**::&% >",
"> ::$::&& ;;;;;;;;;;;; :o**&&% >",
"> &:$:&&& ;;;;;;;;-;;; :&o**%% o",
"> &&$&&&& ;;;-;;-;;;;; &&%o**% *",
">>  +    ;;;--;;--;;-;;;   o**o*",
">>>&&&&&;--;;;;;;;;;;--;&&**o***",
">>>>::>;----;;-;-;;-;---;*oo>ooo",
">>>::;;----;;--;--;--;---;>>>>>>",
">>>>>;----;;---;-----;;---;>>>>>"
};
