/* XPM */
static char *result[] = {
/* columns rows colors chars-per-pixel */
"32 32 17 1 ",
"  c #453043",
". c #58314C",
"X c #78817C",
"o c #A35C88",
"O c #A07A91",
"+ c #D87496",
"@ c #96A89A",
"# c #B088A0",
"$ c #BD9FB9",
"% c #D8899F",
"& c #ACB2D4",
"* c #C3B0CC",
"= c #DABBCA",
"- c #D4C0CC",
"; c #ECC7CF",
": c #E3F5F5",
"> c None",
/* pixels */
">>>>>@>>>>>>>>>>>>>>>>>>>>>>>>>>",
">XX>@@===O****O==***oooooo..>>>>",
">OXX@==O**-::::O===--*o::O:$.>>>",
">>OO==O:*-::O:::OO==:*o::O::$.>>",
">*:==O::*::O=O::::O==*o###OO:$.>",
">*==O:::*:::O::::::O===::#:::$.>",
">==O::::***:::::::::OO===#:::$.>",
"==O:O::***************OO==::*==>",
"=O::#::**..............:O==:==O>",
"O=OO##O:*..++++++++++..::O==OO.>",
">==:O:::*.+%%%%%%%%%%+.:::O==$.>",
">O==O:::*.+;;;;;;;;;%+.::==O==.>",
">oO==:::*...;;;;;;;;;+.:==O:O==>",
">o:O==::*.:.;;;;;;;;;+.==O::*O=>",
">o::O==:*.&.;;;;;;;;;+.=O:::*$O>",
">o:::O==*...;;;;;;;;;+.O::O:*$.>",
">o::::O==.++;;;;;...;+.::O#O*$.>",
">.:::::O=.+;;;;;..:..+.:@:O:*$.>",
">.:::::*O.+;;;;;.:.&.+.:X@::@$.>",
">.::OO:**.+;;;;;..&..+.:X@@@X$.>",
">.:O==O**.+;;;;;;...%+.::@@X*$.>",
">.@O=# **.+;;;;;;;%%;+==:XX:*$.>",
">.:XO @@*.+;;;;;;;;;;+.==X::*$.>",
">.::XX:**.+;;;;;;;;;;+.O==::*$.>",
">.::@::**.+;;;;;;;;;;+.:O==**$.>",
">.*:@:***.+;;;;;;;;;++.:*O==$$.O",
">.**@****.+;;;;;;;;;+..**$O==$.=",
">>..X......................O==O=",
">>>***********************==O===",
">>>>::>>:::::::::::::::>==OO>OOO",
">>>::>>>>>>:::>>>>::::>=OO>>>>>>",
">>>>>>::>>>>>>>::>>>>::O>>>>>>>>"
};
