/* XPM */
static char *result[] = {
/* columns rows colors chars-per-pixel */
"32 32 21 1 ",
"  c black",
". c #002732",
"X c #00303E",
"o c #3E3E3E",
"O c #013D45",
"+ c #004A54",
"@ c #015A66",
"# c gray29",
"$ c #920606",
"% c #AD0707",
"& c #892424",
"* c #9C2929",
"= c #B12F2F",
"- c #3D7C83",
"; c #6DAAAF",
": c #7DBABF",
"> c #A5A5A5",
", c #EAB688",
"< c #EFD1B7",
"1 c white",
"2 c None",
/* pixels */
"22222222222222222222222222222222",
"2222222&*$2222222222222222222222",
"2222222*=%+2222222222+**22222222",
"222222o=oO++++++++..+#=*O2222222",
"22222o#%#o@@::::@@XX#=**:O222222",
"2222O:#oo:::@:::::-#=*O-::O22222",
"2222O:o@::::::::::::#=*@-:O22222",
"2222OO@1:::::::::::::#%*@-:O2222",
"2222O@::11:@:::::::@:1#%*-:O2222",
"2222O:::::-@-::::11@::X#o@::O222",
"222O@:@::-@,@-:-::::@::XO@-:O222",
"222O:@@:-@@,@-:@-:::@::XO@-:O222",
"222O@X@:-@,,,@-,@:::@:-XO@-::O22",
"222O@OX:@  <,@-,,@:-X-X.2O@-:O22",
"222O@OX-@> <<,@   --X##o2O@-:O22",
"2222OOX@@>@<<<@<   -##o22O@-:O22",
"222222.X@1:<<<<<@1> =@O22O@-:O22",
"222222.X@<@<<<<<:@1@%O222O@-:O22",
"222222..X,<<<<<<@@<@$2222O@@-O22",
"22222O:@XX,<<<<<<<,O22222O@@-O22",
"22222O:@XX<,,,,,,,,222222O@@-O22",
"22222O:XX<<>@>>><<,222222O@@-O22",
"22222O@Xo@;>@>>>,<<,2222O@@@X.22",
"22222O@o#o>>@>>>>,@:;222O@@@X.22",
"2222O:,<o#>>@>>>>#o##o22O@@@X.22",
"2222O:@,@:#######:@o<<,2O@@@X.22",
"2222O@XXO::@:@::@::@,,2O@@@@X.22",
"2222OXX.2O@::@:::@:O222O@@@XX.22",
"22222OO222o#oooo##o2222O@@@X.222",
"2222222222O@O222O@O22222O@XX.222",
"2222222222OO22222OO222222O..2222",
"22222222222222222222222222222222"
};
