/* XPM */
static char *result[] = {
/* columns rows colors chars-per-pixel */
"32 32 8 1 ",
"  c #01444D",
". c #015A66",
"X c #3D7C83",
"o c #539FA7",
"O c #7DBABF",
"+ c #A9E4E9",
"@ c #BBEDF2",
"# c None",
/* pixels */
"##.O+o.OOOX.##@#################",
"#..Oo.OOXX.#####################",
"#.XOOXX...#######@######@####@##",
"#..XX..######################@##",
"##....###.....#####...######@@@#",
"########.ooooo.##..ooo.######@##",
"#@#####.o++++o+..o++++o.#####@##",
"#@####.o++OOO+XX.+O+OO+o.#######",
"@@@###.O+OOOooOOX.OOOOO+o.######",
"#@###.OOOOOOoOOOOXOOOoOOO.##@###",
"#@###.OOOOOoOOOOOXOOOoOOo.######",
"#####.OOOOOoOOOOOOOOoOOo..######",
"#####.O+OOOOOOOOOOOooOO..#######",
"##@##...OOOOOOOOOOooOO.oX..#####",
"####..X+.OOOOOOOOOOOOOXXO+o.##@#",
"###.ooOXXOOOOOOOOOOOOOOO+O+o.###",
"##.++++OOXXOOOOOOOOOOOOOOXXO.###",
"##.O+OOOOOOXOOOOOOOoOOOOXXX+.###",
"##.++OOOOOOOOOOOOOOOoOOOOXXo.###",
"##.XOOOOOOOOOOOOOOOOOXXXXXo.####",
"##.XoOOOOXXOOOOOOOoOOXXXoo.#####",
"###.XooOXXXXOOOOoOoO.XXo..####@#",
"####.XXXXXXXXXXOXOXOX...#####@@@",
"#####....o+oXXXXoXXOX.####@###@#",
"#########.....oXX+XXo.##########",
"######@#######.ooXXo.#####...###",
"##@##@@@#######.....#...#.+OO.##",
"######@#############.+OO.OOOOO.#",
"########..###@#####.oOOOOO..XXo.",
"####..#.oo.########...XoO.ooo.. ",
"###.oo.+OOo.####@###.......... #",
"##.OOo.OOOO.#########         ##"
};
