/* XPM */
static char *result[] = {
/* columns rows colors chars-per-pixel */
"32 32 14 1 ",
"  c #55B33B",
". c #63BD37",
"X c #4F9356",
"o c #58B040",
"O c #7FAC57",
"+ c #6F9562",
"@ c #B0ED38",
"# c #8BC24A",
"$ c #E9599F",
"% c #EC67A8",
"& c #EF95C9",
"* c #F6A7D6",
"= c #F9B9DE",
"- c #F9C8E6",
/* pixels */
"###X#########O#O#########.######",
"#OOX#.######OOO######-###.# ####",
"##OO#o## ###########-=-## OXO###",
"#####X# ###%####.####-##########",
"#####XOXO#%$%#### ###.#O########",
"###########%#####@ #. O#########",
"#OO########O#####@ # #O#####O###",
"##O##.###########XXOXO#####O#+##",
"######@######**###XO############",
" ## ## #..##**&*#########.####.#",
"# ## #X  ###*&**##########.##o.#",
"# ###XX #####**###########.o#oX#",
"#X###XXX###########OO#####.oOo##",
"########### #########+##%#Xo#XOO",
"############.# #O######%$%#X####",
"############@ ##O#######%#######",
"## ##O###### XOO################",
"#### #############*#####.####o##",
"### O#O##########*&*###@.####oX#",
"### # ###########.*####@#####ooO",
"##OXO O###.#######.###.X##o##oXO",
"########## #######..##.X#o##o##O",
"##-#######X# ######.##oo#o##o##O",
"#-=-######X#X######o#oXOoXOoX#O#",
"##-################oOoXOoXOoOO##",
"###### #######OO################",
"### # ###&&###O#################",
"####X###&&*&####+###.####-##@OOO",
"#### ###&*&&########.###-=-#@OO#",
"#########&&#########  ###-## #O#",
"#################OO# XO#########",
"###  ###########################"
};
